<svg width="197" height="32" viewBox="0 0 197 32" fill="none" xmlns="http://www.w3.org/2000/svg">
<path d="M193.674 20.1868C193.489 20.1868 193.331 20.1219 193.201 19.9921C193.072 19.8624 193.007 19.7048 193.007 19.5194V1.11216C193.007 0.926787 193.072 0.769222 193.201 0.639464C193.331 0.509704 193.489 0.444824 193.674 0.444824H195.982C196.167 0.444824 196.325 0.509704 196.455 0.639464C196.584 0.769222 196.649 0.926787 196.649 1.11216V19.5194C196.649 19.7048 196.584 19.8624 196.455 19.9921C196.325 20.1219 196.167 20.1868 195.982 20.1868H193.674Z" fill="#A55C2F"/>
<path d="M183.159 20.4648C181.102 20.4648 179.471 19.8716 178.266 18.6853C177.061 17.4989 176.412 15.812 176.319 13.6247C176.301 13.4393 176.292 13.2076 176.292 12.9295C176.292 12.6329 176.301 12.4012 176.319 12.2344C176.393 10.8441 176.709 9.6392 177.265 8.61966C177.839 7.60012 178.627 6.82157 179.628 6.284C180.629 5.72788 181.806 5.44983 183.159 5.44983C184.661 5.44983 185.921 5.76496 186.941 6.39522C187.961 7.00694 188.73 7.86891 189.249 8.98113C189.768 10.0748 190.027 11.3446 190.027 12.7905V13.3744C190.027 13.5598 189.963 13.7173 189.833 13.8471C189.703 13.9769 189.536 14.0417 189.332 14.0417H180.101C180.101 14.0417 180.101 14.0695 180.101 14.1252C180.101 14.1808 180.101 14.2271 180.101 14.2642C180.119 14.913 180.24 15.5154 180.462 16.0715C180.703 16.6091 181.046 17.0447 181.491 17.3784C181.955 17.7121 182.501 17.8789 183.132 17.8789C183.651 17.8789 184.086 17.8048 184.439 17.6565C184.791 17.4896 185.078 17.3043 185.3 17.1003C185.523 16.8964 185.68 16.7296 185.773 16.5998C185.94 16.3774 186.07 16.2476 186.162 16.2106C186.274 16.155 186.431 16.1272 186.635 16.1272H189.026C189.212 16.1272 189.36 16.1828 189.471 16.294C189.601 16.4052 189.657 16.5442 189.638 16.7111C189.62 17.0077 189.462 17.3691 189.165 17.7955C188.887 18.2218 188.48 18.6389 187.942 19.0467C187.404 19.4545 186.728 19.7975 185.912 20.0755C185.115 20.3351 184.198 20.4648 183.159 20.4648ZM180.101 11.7061H186.246V11.6227C186.246 10.8997 186.125 10.2695 185.884 9.73188C185.643 9.19431 185.291 8.76796 184.828 8.45283C184.364 8.1377 183.808 7.98013 183.159 7.98013C182.511 7.98013 181.955 8.1377 181.491 8.45283C181.028 8.76796 180.675 9.19431 180.435 9.73188C180.212 10.2695 180.101 10.8997 180.101 11.6227V11.7061Z" fill="#A55C2F"/>
<path d="M166.871 20.4648C165.388 20.4648 164.137 20.2053 163.117 19.6863C162.116 19.1672 161.347 18.435 160.809 17.4896C160.29 16.5442 159.994 15.4413 159.919 14.1808C159.901 13.8471 159.892 13.4393 159.892 12.9573C159.892 12.4754 159.901 12.0675 159.919 11.7339C159.994 10.4548 160.299 9.35187 160.837 8.42502C161.393 7.47963 162.172 6.74742 163.173 6.22838C164.192 5.70935 165.425 5.44983 166.871 5.44983C168.317 5.44983 169.54 5.70935 170.541 6.22838C171.561 6.74742 172.339 7.47963 172.877 8.42502C173.433 9.35187 173.748 10.4548 173.822 11.7339C173.841 12.0675 173.85 12.4754 173.85 12.9573C173.85 13.4393 173.841 13.8471 173.822 14.1808C173.748 15.4413 173.442 16.5442 172.905 17.4896C172.386 18.435 171.616 19.1672 170.597 19.6863C169.596 20.2053 168.354 20.4648 166.871 20.4648ZM166.871 17.7121C167.853 17.7121 168.613 17.4062 169.151 16.7945C169.688 16.1642 169.985 15.2466 170.041 14.0417C170.059 13.7637 170.068 13.4022 170.068 12.9573C170.068 12.5124 170.059 12.151 170.041 11.8729C169.985 10.6865 169.688 9.77822 169.151 9.14796C168.613 8.51771 167.853 8.20258 166.871 8.20258C165.888 8.20258 165.128 8.51771 164.591 9.14796C164.053 9.77822 163.757 10.6865 163.701 11.8729C163.682 12.151 163.673 12.5124 163.673 12.9573C163.673 13.4022 163.682 13.7637 163.701 14.0417C163.757 15.2466 164.053 16.1642 164.591 16.7945C165.128 17.4062 165.888 17.7121 166.871 17.7121Z" fill="#A55C2F"/>
<path d="M141.818 20.1869C141.632 20.1869 141.475 20.122 141.345 19.9923C141.215 19.8625 141.15 19.7049 141.15 19.5196V1.41816C141.15 1.21425 141.215 1.04742 141.345 0.917662C141.475 0.787902 141.632 0.723022 141.818 0.723022H143.959C144.218 0.723022 144.404 0.787902 144.515 0.917662C144.645 1.02888 144.728 1.1123 144.765 1.16791L152.773 13.6248V1.41816C152.773 1.21425 152.829 1.04742 152.94 0.917662C153.07 0.787902 153.237 0.723022 153.44 0.723022H155.776C155.98 0.723022 156.147 0.787902 156.277 0.917662C156.406 1.04742 156.471 1.21425 156.471 1.41816V19.4918C156.471 19.6957 156.406 19.8625 156.277 19.9923C156.147 20.122 155.989 20.1869 155.804 20.1869H153.635C153.376 20.1869 153.19 20.122 153.079 19.9923C152.968 19.8625 152.884 19.7791 152.829 19.742L144.849 7.56318V19.5196C144.849 19.7049 144.784 19.8625 144.654 19.9923C144.524 20.122 144.357 20.1869 144.153 20.1869H141.818Z" fill="#A55C2F"/>
<path d="M122.777 20.4648C121.813 20.4648 120.942 20.2794 120.163 19.9087C119.385 19.5194 118.764 19.0097 118.3 18.3794C117.855 17.7306 117.633 17.0077 117.633 16.2106C117.633 14.913 118.152 13.8842 119.19 13.1242C120.247 12.3456 121.637 11.8266 123.361 11.567L127.17 11.0109V10.427C127.17 9.64847 126.975 9.04601 126.586 8.61966C126.197 8.19331 125.53 7.98013 124.584 7.98013C123.917 7.98013 123.37 8.11916 122.944 8.39722C122.536 8.65673 122.23 9.00894 122.026 9.45383C121.878 9.69481 121.665 9.8153 121.387 9.8153H119.19C118.986 9.8153 118.828 9.75969 118.717 9.64847C118.625 9.53724 118.578 9.38895 118.578 9.20358C118.597 8.90698 118.717 8.54551 118.94 8.11916C119.162 7.69281 119.514 7.28499 119.996 6.89572C120.478 6.4879 121.099 6.14497 121.859 5.86691C122.619 5.58886 123.537 5.44983 124.612 5.44983C125.78 5.44983 126.762 5.59813 127.559 5.89472C128.375 6.17277 129.024 6.55278 129.506 7.03474C129.988 7.51671 130.34 8.08209 130.562 8.73088C130.785 9.37968 130.896 10.0655 130.896 10.7885V19.5194C130.896 19.7048 130.831 19.8624 130.701 19.9921C130.572 20.1219 130.414 20.1868 130.229 20.1868H127.976C127.773 20.1868 127.606 20.1219 127.476 19.9921C127.365 19.8624 127.309 19.7048 127.309 19.5194V18.435C127.068 18.7872 126.744 19.1209 126.336 19.436C125.928 19.7326 125.428 19.9829 124.834 20.1868C124.26 20.3721 123.574 20.4648 122.777 20.4648ZM123.722 17.8233C124.371 17.8233 124.955 17.6843 125.474 17.4062C126.012 17.1282 126.429 16.7018 126.725 16.1272C127.04 15.534 127.198 14.7925 127.198 13.9027V13.3188L124.417 13.7637C123.324 13.9305 122.508 14.1993 121.97 14.57C121.433 14.9408 121.164 15.3949 121.164 15.9325C121.164 16.3403 121.285 16.6925 121.526 16.9891C121.785 17.2672 122.109 17.4804 122.499 17.6287C122.888 17.7584 123.296 17.8233 123.722 17.8233Z" fill="#BF8933"/>
<path d="M101.785 20.1868C101.6 20.1868 101.443 20.1219 101.313 19.9921C101.183 19.8624 101.118 19.7048 101.118 19.5194V1.11216C101.118 0.926787 101.183 0.769222 101.313 0.639464C101.443 0.509704 101.6 0.444824 101.785 0.444824H104.26C104.464 0.444824 104.622 0.509704 104.733 0.639464C104.863 0.769222 104.928 0.926787 104.928 1.11216V7.45182C105.428 6.85863 106.04 6.37667 106.763 6.00593C107.486 5.63519 108.375 5.44982 109.432 5.44982C110.563 5.44982 111.545 5.70934 112.379 6.22837C113.232 6.72888 113.89 7.44255 114.354 8.3694C114.817 9.29625 115.049 10.4085 115.049 11.7061V19.5194C115.049 19.7048 114.984 19.8624 114.854 19.9921C114.724 20.1219 114.567 20.1868 114.381 20.1868H111.879C111.694 20.1868 111.536 20.1219 111.406 19.9921C111.276 19.8624 111.212 19.7048 111.212 19.5194V11.8729C111.212 10.7978 110.943 9.95432 110.405 9.3426C109.886 8.73087 109.126 8.42501 108.125 8.42501C107.161 8.42501 106.383 8.73087 105.789 9.3426C105.215 9.95432 104.928 10.7978 104.928 11.8729V19.5194C104.928 19.7048 104.863 19.8624 104.733 19.9921C104.622 20.1219 104.464 20.1868 104.26 20.1868H101.785Z" fill="#BF8933"/>
<path d="M91.769 20.4648C90.6567 20.4648 89.7021 20.3351 88.905 20.0755C88.1264 19.816 87.4869 19.4916 86.9864 19.1023C86.4859 18.7131 86.1152 18.3238 85.8742 17.9345C85.6332 17.5452 85.5035 17.2208 85.4849 16.9613C85.4664 16.7574 85.522 16.5998 85.6518 16.4886C85.8 16.3589 85.9576 16.294 86.1245 16.294H88.3211C88.3952 16.294 88.4601 16.3033 88.5157 16.3218C88.5713 16.3403 88.6455 16.3959 88.7382 16.4886C88.9791 16.6925 89.2294 16.9057 89.4889 17.1282C89.767 17.3506 90.0914 17.5452 90.4621 17.7121C90.8328 17.8604 91.2963 17.9345 91.8524 17.9345C92.5753 17.9345 93.1778 17.7955 93.6597 17.5174C94.1602 17.2208 94.4105 16.8038 94.4105 16.2662C94.4105 15.8769 94.2993 15.5618 94.0768 15.3208C93.8729 15.0798 93.4836 14.8666 92.909 14.6813C92.3343 14.4774 91.5187 14.2642 90.4621 14.0417C89.424 13.8008 88.5621 13.4949 87.8762 13.1242C87.1903 12.7534 86.6806 12.29 86.3469 11.7339C86.0132 11.1778 85.8464 10.529 85.8464 9.78749C85.8464 9.06455 86.0596 8.37868 86.4859 7.72988C86.9308 7.06255 87.5796 6.51571 88.4323 6.08936C89.3035 5.663 90.3787 5.44983 91.6577 5.44983C92.6587 5.44983 93.53 5.57959 94.2715 5.83911C95.0129 6.08009 95.6247 6.38595 96.1066 6.75669C96.6071 7.12743 96.9871 7.50744 97.2467 7.89672C97.5062 8.26746 97.6452 8.59185 97.6637 8.86991C97.6823 9.07382 97.6267 9.24065 97.4969 9.37041C97.3671 9.48163 97.2188 9.53724 97.052 9.53724H94.9944C94.9017 9.53724 94.8183 9.51871 94.7442 9.48163C94.67 9.44456 94.5959 9.39821 94.5217 9.3426C94.3178 9.15723 94.0954 8.96259 93.8544 8.75869C93.6134 8.55478 93.3168 8.37868 92.9646 8.23038C92.6309 8.06355 92.186 7.98013 91.6299 7.98013C90.9255 7.98013 90.388 8.1377 90.0172 8.45283C89.6465 8.74942 89.4611 9.12943 89.4611 9.59285C89.4611 9.90798 89.5445 10.186 89.7114 10.427C89.8967 10.6495 90.2582 10.8626 90.7958 11.0665C91.3333 11.2705 92.149 11.4836 93.2427 11.7061C94.4846 11.9285 95.4671 12.2622 96.19 12.7071C96.9315 13.1334 97.4506 13.6339 97.7472 14.2086C98.0623 14.7647 98.2198 15.3857 98.2198 16.0715C98.2198 16.9057 97.9696 17.6565 97.4691 18.3238C96.9871 18.9911 96.2642 19.5194 95.3003 19.9087C94.3549 20.2794 93.1778 20.4648 91.769 20.4648Z" fill="#BF8933"/>
<path d="M79.6272 20.1868C79.4418 20.1868 79.2843 20.1219 79.1545 19.9922C79.0247 19.8624 78.9599 19.7049 78.9599 19.5195V6.39527C78.9599 6.2099 79.0247 6.05234 79.1545 5.92258C79.2843 5.79282 79.4418 5.72794 79.6272 5.72794H81.935C82.139 5.72794 82.2965 5.79282 82.4077 5.92258C82.5375 6.05234 82.6024 6.2099 82.6024 6.39527V19.5195C82.6024 19.7049 82.5375 19.8624 82.4077 19.9922C82.2965 20.1219 82.139 20.1868 81.935 20.1868H79.6272ZM79.516 3.33666C79.3121 3.33666 79.1452 3.28105 79.0155 3.16983C78.9042 3.04007 78.8486 2.87324 78.8486 2.66933V0.667332C78.8486 0.481962 78.9042 0.324398 79.0155 0.194638C79.1452 0.0648793 79.3121 0 79.516 0H82.0463C82.2502 0 82.417 0.0648793 82.5468 0.194638C82.6765 0.324398 82.7414 0.481962 82.7414 0.667332V2.66933C82.7414 2.87324 82.6765 3.04007 82.5468 3.16983C82.417 3.28105 82.2502 3.33666 82.0463 3.33666H79.516Z" fill="#BF8933"/>
<path d="M72.2967 20.1868C72.1114 20.1868 71.9538 20.1219 71.824 19.9921C71.6943 19.8624 71.6294 19.7048 71.6294 19.5194V1.11216C71.6294 0.926787 71.6943 0.769222 71.824 0.639464C71.9538 0.509704 72.1114 0.444824 72.2967 0.444824H74.6046C74.79 0.444824 74.9475 0.509704 75.0773 0.639464C75.207 0.769222 75.2719 0.926787 75.2719 1.11216V19.5194C75.2719 19.7048 75.207 19.8624 75.0773 19.9921C74.9475 20.1219 74.79 20.1868 74.6046 20.1868H72.2967Z" fill="#BF8933"/>
<path d="M59.9155 20.4648C58.9516 20.4648 58.0803 20.2794 57.3018 19.9087C56.5232 19.5194 55.9022 19.0097 55.4388 18.3794C54.9939 17.7306 54.7715 17.0077 54.7715 16.2106C54.7715 14.913 55.2905 13.8842 56.3286 13.1242C57.3852 12.3456 58.7755 11.8266 60.4994 11.567L64.3088 11.0109V10.427C64.3088 9.64847 64.1141 9.04601 63.7249 8.61966C63.3356 8.19331 62.6683 7.98013 61.7229 7.98013C61.0555 7.98013 60.5087 8.11916 60.0823 8.39722C59.6745 8.65673 59.3687 9.00894 59.1648 9.45383C59.0165 9.69481 58.8033 9.8153 58.5252 9.8153H56.3286C56.1247 9.8153 55.9671 9.75969 55.8559 9.64847C55.7632 9.53724 55.7169 9.38895 55.7169 9.20358C55.7354 8.90698 55.8559 8.54551 56.0783 8.11916C56.3008 7.69281 56.653 7.28499 57.135 6.89572C57.6169 6.4879 58.2379 6.14497 58.9979 5.86691C59.7579 5.58886 60.6755 5.44983 61.7507 5.44983C62.9185 5.44983 63.901 5.59813 64.6981 5.89472C65.5137 6.17277 66.1625 6.55278 66.6444 7.03474C67.1264 7.51671 67.4786 8.08209 67.701 8.73088C67.9235 9.37968 68.0347 10.0655 68.0347 10.7885V19.5194C68.0347 19.7048 67.9698 19.8624 67.8401 19.9921C67.7103 20.1219 67.5527 20.1868 67.3674 20.1868H65.1151C64.9112 20.1868 64.7444 20.1219 64.6146 19.9921C64.5034 19.8624 64.4478 19.7048 64.4478 19.5194V18.435C64.2068 18.7872 63.8824 19.1209 63.4746 19.436C63.0668 19.7326 62.5663 19.9829 61.9731 20.1868C61.3985 20.3721 60.7126 20.4648 59.9155 20.4648ZM60.8609 17.8233C61.5097 17.8233 62.0936 17.6843 62.6126 17.4062C63.1502 17.1282 63.5673 16.7018 63.8639 16.1272C64.179 15.534 64.3366 14.7925 64.3366 13.9027V13.3188L61.556 13.7637C60.4623 13.9305 59.6467 14.1993 59.1091 14.57C58.5716 14.9408 58.3028 15.3949 58.3028 15.9325C58.3028 16.3403 58.4233 16.6925 58.6643 16.9891C58.9238 17.2672 59.2482 17.4804 59.6375 17.6287C60.0267 17.7584 60.4345 17.8233 60.8609 17.8233Z" fill="#BF8933"/>
<path d="M39.0326 20.1868C38.8472 20.1868 38.6896 20.1219 38.5599 19.9921C38.4301 19.8624 38.3652 19.7048 38.3652 19.5194V6.39522C38.3652 6.20985 38.4301 6.05228 38.5599 5.92252C38.6896 5.79276 38.8472 5.72788 39.0326 5.72788H41.3126C41.498 5.72788 41.6556 5.79276 41.7853 5.92252C41.9151 6.05228 41.9799 6.20985 41.9799 6.39522V7.53524C42.4619 6.94206 43.0736 6.45083 43.8151 6.06155C44.5751 5.65374 45.5113 5.44983 46.6235 5.44983C47.7542 5.44983 48.7367 5.70935 49.5709 6.22838C50.405 6.72888 51.0445 7.44256 51.4894 8.36941C51.9529 9.29626 52.1846 10.4085 52.1846 11.7061V19.5194C52.1846 19.7048 52.1197 19.8624 51.9899 19.9921C51.8602 20.1219 51.7026 20.1868 51.5172 20.1868H49.0704C48.885 20.1868 48.7274 20.1219 48.5977 19.9921C48.4679 19.8624 48.403 19.7048 48.403 19.5194V11.8729C48.403 10.7978 48.1342 9.95433 47.5967 9.3426C47.0776 8.73088 46.3176 8.42502 45.3166 8.42502C44.3527 8.42502 43.5834 8.73088 43.0088 9.3426C42.4341 9.95433 42.1468 10.7978 42.1468 11.8729V19.5194C42.1468 19.7048 42.0819 19.8624 41.9521 19.9921C41.8224 20.1219 41.6648 20.1868 41.4795 20.1868H39.0326Z" fill="#BF8933"/>
<path d="M21.6815 20.1868C21.4961 20.1868 21.3386 20.1219 21.2088 19.9921C21.079 19.8624 21.0142 19.7048 21.0142 19.5194V6.39522C21.0142 6.20985 21.079 6.05228 21.2088 5.92252C21.3386 5.79276 21.4961 5.72788 21.6815 5.72788H23.9615C24.1469 5.72788 24.3045 5.79276 24.4342 5.92252C24.564 6.05228 24.6289 6.20985 24.6289 6.39522V7.53524C25.1108 6.94206 25.7226 6.45083 26.464 6.06155C27.2241 5.65374 28.1602 5.44983 29.2724 5.44983C30.4032 5.44983 31.3856 5.70935 32.2198 6.22838C33.0539 6.72888 33.6935 7.44256 34.1384 8.36941C34.6018 9.29626 34.8335 10.4085 34.8335 11.7061V19.5194C34.8335 19.7048 34.7686 19.8624 34.6389 19.9921C34.5091 20.1219 34.3515 20.1868 34.1662 20.1868H31.7193C31.5339 20.1868 31.3763 20.1219 31.2466 19.9921C31.1168 19.8624 31.052 19.7048 31.052 19.5194V11.8729C31.052 10.7978 30.7832 9.95433 30.2456 9.3426C29.7266 8.73088 28.9665 8.42502 27.9655 8.42502C27.0016 8.42502 26.2323 8.73088 25.6577 9.3426C25.083 9.95433 24.7957 10.7978 24.7957 11.8729V19.5194C24.7957 19.7048 24.7308 19.8624 24.6011 19.9921C24.4713 20.1219 24.3137 20.1868 24.1284 20.1868H21.6815Z" fill="#BF8933"/>
<path d="M0.872978 20.1869C0.724682 20.1869 0.585655 20.1313 0.455896 20.0201C0.344674 19.9088 0.289062 19.7698 0.289062 19.603C0.289062 19.5288 0.307599 19.4454 0.344674 19.3527L7.0458 1.41816C7.10141 1.23279 7.20337 1.07523 7.35166 0.945467C7.5185 0.797171 7.74094 0.723022 8.01899 0.723022H11.0498C11.3279 0.723022 11.541 0.797171 11.6893 0.945467C11.8376 1.07523 11.9488 1.23279 12.023 1.41816L18.7241 19.3527C18.7427 19.4454 18.7519 19.5288 18.7519 19.603C18.7519 19.7698 18.6963 19.9088 18.5851 20.0201C18.4739 20.1313 18.3441 20.1869 18.1958 20.1869H15.7767C15.5172 20.1869 15.3226 20.1313 15.1928 20.0201C15.0816 19.8903 15.0074 19.7698 14.9704 19.6586L13.6635 16.2663H5.40528L4.09842 19.6586C4.06134 19.7698 3.97793 19.8903 3.84817 20.0201C3.73695 20.1313 3.55158 20.1869 3.29206 20.1869H0.872978ZM6.37847 13.0687H12.6903L9.52049 4.47677L6.37847 13.0687Z" fill="#BF8933"/>
<path d="M100.622 30.7192C100.577 30.7192 100.541 30.7057 100.514 30.6787C100.492 30.6473 100.485 30.6091 100.494 30.5641L101.175 27.3758C101.184 27.3308 101.206 27.2926 101.242 27.2612C101.278 27.2297 101.319 27.214 101.364 27.214H101.674C101.719 27.214 101.752 27.2297 101.775 27.2612C101.802 27.2926 101.811 27.3308 101.802 27.3758L101.734 27.6724C101.838 27.5196 101.975 27.405 102.146 27.3286C102.321 27.2522 102.523 27.214 102.752 27.214H103.042C103.087 27.214 103.118 27.2297 103.136 27.2612C103.159 27.2881 103.166 27.3241 103.157 27.369L103.103 27.6454C103.094 27.6903 103.071 27.7263 103.035 27.7532C103.004 27.7802 102.963 27.7937 102.914 27.7937H102.516C102.274 27.7937 102.067 27.8656 101.896 28.0094C101.725 28.1487 101.613 28.3397 101.559 28.5824L101.141 30.5641C101.132 30.6091 101.11 30.6473 101.074 30.6787C101.038 30.7057 100.997 30.7192 100.952 30.7192H100.622Z" fill="#1B1B1B"/>
<path d="M98.1777 30.7866C97.8721 30.7866 97.6182 30.7214 97.416 30.5911C97.2182 30.4608 97.0812 30.2766 97.0048 30.0384C96.9284 29.7957 96.9126 29.5126 96.9576 29.189C96.9666 29.1306 96.9801 29.0565 96.998 28.9666C97.0205 28.8722 97.0407 28.7958 97.0587 28.7374C97.1486 28.4184 97.2811 28.1397 97.4564 27.9016C97.6362 27.6589 97.8541 27.4724 98.1103 27.3421C98.3664 27.2118 98.6473 27.1466 98.9528 27.1466C99.2944 27.1466 99.564 27.2185 99.7617 27.3623C99.9595 27.5061 100.092 27.7106 100.159 27.9757C100.227 28.2409 100.225 28.5509 100.153 28.9059L100.126 29.0205C100.117 29.07 100.092 29.1082 100.052 29.1351C100.016 29.1621 99.9752 29.1756 99.9302 29.1756H97.6047C97.6047 29.1801 97.6024 29.189 97.598 29.2025C97.598 29.216 97.5957 29.2272 97.5912 29.2362C97.5642 29.4205 97.5687 29.5935 97.6047 29.7553C97.6406 29.9126 97.7148 30.0406 97.8271 30.1395C97.944 30.2384 98.0968 30.2878 98.2855 30.2878C98.4473 30.2878 98.5866 30.2631 98.7034 30.2136C98.8248 30.1642 98.9236 30.1103 99 30.0519C99.0764 29.989 99.1303 29.9418 99.1618 29.9103C99.2157 29.8519 99.2539 29.8182 99.2764 29.8092C99.3034 29.7957 99.3438 29.789 99.3977 29.789H99.7213C99.7617 29.789 99.7932 29.8025 99.8157 29.8294C99.8381 29.8519 99.8449 29.8856 99.8359 29.9305C99.8179 29.9979 99.764 30.0811 99.6741 30.1799C99.5887 30.2743 99.4719 30.3687 99.3236 30.463C99.1798 30.5574 99.0113 30.6361 98.818 30.699C98.6248 30.7574 98.4113 30.7866 98.1777 30.7866ZM97.7058 28.7105H99.546L99.5528 28.6902C99.6067 28.488 99.6112 28.3083 99.5662 28.151C99.5258 27.9937 99.4449 27.8701 99.3236 27.7802C99.2022 27.6859 99.045 27.6387 98.8517 27.6387C98.6585 27.6387 98.4855 27.6859 98.3327 27.7802C98.1799 27.8701 98.0496 27.9937 97.9417 28.151C97.8384 28.3083 97.762 28.488 97.7125 28.6902L97.7058 28.7105Z" fill="#1B1B1B"/>
<path d="M94.4314 30.7866C94.1303 30.7866 93.8742 30.7259 93.663 30.6046C93.4518 30.4788 93.299 30.3013 93.2046 30.0721C93.1103 29.8384 93.0923 29.5598 93.1507 29.2362C93.1642 29.1688 93.1822 29.079 93.2046 28.9666C93.2271 28.8543 93.2473 28.7644 93.2653 28.697C93.3821 28.2116 93.5956 27.8319 93.9057 27.5578C94.2202 27.2837 94.6224 27.1466 95.1122 27.1466C95.3774 27.1466 95.5976 27.1848 95.7728 27.2612C95.9481 27.3331 96.0852 27.4297 96.184 27.5511C96.2874 27.6679 96.357 27.7915 96.393 27.9218C96.4289 28.0521 96.4402 28.1757 96.4267 28.2925C96.4222 28.3375 96.4042 28.3757 96.3728 28.4071C96.3458 28.4341 96.3098 28.4476 96.2649 28.4476H95.9144C95.8695 28.4476 95.8335 28.4363 95.8065 28.4139C95.7841 28.3914 95.7728 28.3554 95.7728 28.306C95.7773 28.0858 95.7167 27.9263 95.5908 27.8274C95.4695 27.7286 95.301 27.6791 95.0853 27.6791C94.8202 27.6791 94.5775 27.7623 94.3573 27.9285C94.1416 28.0948 93.9888 28.3622 93.8989 28.7307C93.8809 28.8026 93.863 28.8835 93.845 28.9733C93.827 29.0587 93.8113 29.1351 93.7978 29.2025C93.7349 29.5755 93.7641 29.8451 93.8854 30.0114C94.0068 30.1732 94.2022 30.2541 94.4719 30.2541C94.6786 30.2541 94.8696 30.2091 95.0448 30.1193C95.2246 30.0294 95.3706 29.8744 95.483 29.6542C95.5144 29.6002 95.5414 29.5643 95.5639 29.5463C95.5908 29.5283 95.6268 29.5193 95.6717 29.5193H96.0155C96.0559 29.5193 96.0874 29.5328 96.1099 29.5598C96.1323 29.5868 96.1368 29.6227 96.1234 29.6676C96.0919 29.78 96.0357 29.9013 95.9548 30.0316C95.8739 30.162 95.7639 30.2855 95.6245 30.4024C95.4897 30.5147 95.3235 30.6069 95.1257 30.6788C94.928 30.7507 94.6966 30.7866 94.4314 30.7866Z" fill="#1B1B1B"/>
<path d="M87.7341 30.7192C87.6892 30.7192 87.6532 30.7057 87.6263 30.6788C87.6038 30.6473 87.597 30.6091 87.606 30.5642L88.206 27.7533H87.633C87.5881 27.7533 87.5544 27.7398 87.5319 27.7129C87.5094 27.6814 87.5027 27.6432 87.5117 27.5983L87.5588 27.3691C87.5678 27.3241 87.5903 27.2882 87.6263 27.2612C87.6622 27.2298 87.7027 27.214 87.7476 27.214H88.3206L88.3947 26.877C88.4441 26.6478 88.525 26.4478 88.6374 26.2771C88.7542 26.1018 88.9025 25.967 89.0823 25.8726C89.2665 25.7783 89.4845 25.7311 89.7361 25.7311H90.1945C90.2394 25.7311 90.2731 25.7468 90.2956 25.7783C90.3181 25.8052 90.3248 25.8412 90.3158 25.8861L90.2686 26.1153C90.2596 26.1602 90.2372 26.1984 90.2012 26.2299C90.1653 26.2569 90.1248 26.2703 90.0799 26.2703H89.7294C89.5182 26.2703 89.3541 26.3265 89.2373 26.4389C89.1249 26.5467 89.0486 26.704 89.0081 26.9107L88.9407 27.214H90.3832L90.4574 26.877C90.5068 26.6478 90.5899 26.4478 90.7068 26.2771C90.8236 26.1018 90.9719 25.967 91.1517 25.8726C91.3314 25.7783 91.5471 25.7311 91.7988 25.7311H92.8975C92.9424 25.7311 92.9762 25.7468 92.9986 25.7783C93.0211 25.8052 93.0278 25.8412 93.0188 25.8861L92.9717 26.1153C92.9627 26.1602 92.9402 26.1984 92.9042 26.2299C92.8683 26.2569 92.8279 26.2703 92.7829 26.2703H91.792C91.5853 26.2703 91.4235 26.3265 91.3067 26.4389C91.1943 26.5467 91.1157 26.704 91.0708 26.9107L91.0101 27.214H92.5807C92.6256 27.214 92.6593 27.2298 92.6818 27.2612C92.7043 27.2882 92.711 27.3241 92.702 27.3691L92.0212 30.5642C92.0122 30.6091 91.9898 30.6473 91.9538 30.6788C91.9224 30.7057 91.8842 30.7192 91.8392 30.7192H91.5224C91.4775 30.7192 91.4438 30.7057 91.4213 30.6788C91.3988 30.6473 91.3921 30.6091 91.4011 30.5642L91.9942 27.7533H90.8955L90.2956 30.5642C90.2866 30.6091 90.2641 30.6473 90.2282 30.6788C90.1967 30.7057 90.1585 30.7192 90.1136 30.7192H89.7968C89.7518 30.7192 89.7181 30.7057 89.6957 30.6788C89.6732 30.6473 89.6665 30.6091 89.6754 30.5642L90.2754 27.7533H88.8328L88.2329 30.5642C88.2239 30.6091 88.2015 30.6473 88.1655 30.6788C88.1341 30.7057 88.0959 30.7192 88.0509 30.7192H87.7341Z" fill="#1B1B1B"/>
<path d="M84.5 30.7866C84.2348 30.7866 83.9944 30.7506 83.7787 30.6787C83.563 30.6023 83.3855 30.4877 83.2462 30.3349C83.1069 30.1821 83.0103 29.9889 82.9564 29.7552C82.9069 29.5215 82.9092 29.2474 82.9631 28.9329C82.999 28.7351 83.0372 28.5464 83.0777 28.3666C83.1181 28.1824 83.1631 27.9914 83.2125 27.7937C83.3608 27.169 83.6214 26.7039 83.9944 26.3983C84.3719 26.0883 84.8438 25.9332 85.41 25.9332C85.6796 25.9332 85.92 25.9714 86.1312 26.0478C86.3469 26.1242 86.5245 26.2411 86.6638 26.3983C86.8076 26.5556 86.9042 26.7489 86.9536 26.978C87.003 27.2072 87.0008 27.4791 86.9469 27.7937C86.9109 27.9914 86.8727 28.1824 86.8323 28.3666C86.7918 28.5464 86.7491 28.7351 86.7042 28.9329C86.5514 29.5665 86.2863 30.0338 85.9088 30.3349C85.5358 30.636 85.0662 30.7866 84.5 30.7866ZM84.527 30.2136C84.882 30.2136 85.1943 30.1102 85.4639 29.9035C85.7335 29.6968 85.9245 29.362 86.0369 28.8992C86.0863 28.6969 86.1267 28.5172 86.1582 28.3599C86.1942 28.1981 86.2301 28.0184 86.2661 27.8206C86.3514 27.3578 86.3155 27.023 86.1582 26.8163C86.0054 26.6095 85.747 26.5062 85.383 26.5062C85.0235 26.5062 84.7112 26.6095 84.4461 26.8163C84.1809 27.023 83.9922 27.3578 83.8798 27.8206C83.8304 28.0184 83.7877 28.1981 83.7518 28.3599C83.7158 28.5172 83.6799 28.6969 83.6439 28.8992C83.563 29.362 83.5967 29.6968 83.745 29.9035C83.8978 30.1102 84.1585 30.2136 84.527 30.2136Z" fill="#1B1B1B"/>
<path d="M77.7573 31.9999C77.7033 31.9999 77.6674 31.9774 77.6494 31.9325C77.6314 31.8876 77.6427 31.8359 77.6831 31.7775L78.5122 30.4832L77.8516 27.396C77.8426 27.3511 77.8494 27.3106 77.8719 27.2747C77.8943 27.2342 77.9393 27.214 78.0067 27.214H78.3033C78.3527 27.214 78.3886 27.2252 78.4111 27.2477C78.4336 27.2657 78.4471 27.2926 78.4516 27.3286L78.9639 29.789L80.5479 27.3286C80.5659 27.2971 80.5906 27.2702 80.6221 27.2477C80.6535 27.2252 80.694 27.214 80.7434 27.214H81.0939C81.1344 27.214 81.1681 27.232 81.195 27.2679C81.2265 27.3039 81.2242 27.3511 81.1883 27.4095L78.2965 31.8853C78.2741 31.9168 78.2471 31.9437 78.2156 31.9662C78.1887 31.9887 78.1505 31.9999 78.101 31.9999H77.7573Z" fill="#1B1B1B"/>
<path d="M75.0152 30.7192C74.9703 30.7192 74.9343 30.7057 74.9074 30.6787C74.8849 30.6473 74.8782 30.6091 74.8872 30.5641L75.568 27.3758C75.577 27.3308 75.5994 27.2926 75.6354 27.2612C75.6713 27.2297 75.7118 27.214 75.7567 27.214H76.0668C76.1117 27.214 76.1454 27.2297 76.1679 27.2612C76.1949 27.2926 76.2038 27.3308 76.1949 27.3758L76.1274 27.6724C76.2308 27.5196 76.3679 27.405 76.5386 27.3286C76.7139 27.2522 76.9161 27.214 77.1453 27.214H77.4352C77.4801 27.214 77.5115 27.2297 77.5295 27.2612C77.552 27.2881 77.5587 27.3241 77.5497 27.369L77.4958 27.6454C77.4868 27.6903 77.4644 27.7263 77.4284 27.7532C77.3969 27.7802 77.3565 27.7937 77.3071 27.7937H76.9094C76.6667 27.7937 76.46 27.8656 76.2892 28.0094C76.1185 28.1487 76.0061 28.3397 75.9522 28.5824L75.5343 30.5641C75.5253 30.6091 75.5028 30.6473 75.4669 30.6787C75.4309 30.7057 75.3905 30.7192 75.3455 30.7192H75.0152Z" fill="#1B1B1B"/>
<path d="M72.1977 30.7866C71.9506 30.7866 71.7461 30.7439 71.5843 30.6585C71.4225 30.5687 71.299 30.4496 71.2136 30.3013C71.1282 30.1485 71.0743 29.9755 71.0518 29.7822C71.0338 29.589 71.0406 29.3845 71.072 29.1688C71.0855 29.0969 71.099 29.0295 71.1125 28.9666C71.1259 28.9037 71.1417 28.8363 71.1596 28.7644C71.2136 28.5532 71.2855 28.3532 71.3754 28.1645C71.4652 27.9712 71.5776 27.7982 71.7124 27.6454C71.8517 27.4881 72.018 27.3668 72.2112 27.2814C72.4089 27.1915 72.6381 27.1466 72.8988 27.1466C73.1864 27.1466 73.4021 27.196 73.5459 27.2949C73.6942 27.3893 73.8088 27.5061 73.8896 27.6454L73.9436 27.3691C73.9526 27.3241 73.9728 27.2882 74.0042 27.2612C74.0402 27.2297 74.0829 27.214 74.1323 27.214H74.4356C74.4806 27.214 74.5143 27.2297 74.5368 27.2612C74.5637 27.2882 74.5727 27.3241 74.5637 27.3691L73.8829 30.5642C73.8739 30.6091 73.8514 30.6473 73.8155 30.6788C73.784 30.7057 73.7458 30.7192 73.7009 30.7192H73.3908C73.3459 30.7192 73.3122 30.7057 73.2897 30.6788C73.2672 30.6473 73.2605 30.6091 73.2695 30.5642L73.3302 30.281C73.1909 30.4249 73.0381 30.5462 72.8718 30.645C72.71 30.7394 72.4853 30.7866 72.1977 30.7866ZM72.3393 30.2406C72.564 30.2406 72.7572 30.1889 72.919 30.0856C73.0853 29.9822 73.2201 29.8519 73.3234 29.6946C73.4268 29.5328 73.4987 29.3688 73.5391 29.2025C73.5571 29.1306 73.5751 29.0452 73.5931 28.9464C73.6155 28.843 73.6335 28.7554 73.647 28.6835C73.6829 28.5262 73.6852 28.3712 73.6537 28.2184C73.6268 28.0656 73.5571 27.9398 73.4448 27.8409C73.3369 27.742 73.1729 27.6926 72.9527 27.6926C72.7415 27.6926 72.5595 27.7443 72.4067 27.8476C72.2584 27.9465 72.1348 28.0791 72.0359 28.2453C71.9416 28.4071 71.8652 28.5824 71.8068 28.7711C71.7888 28.8385 71.7731 28.9037 71.7596 28.9666C71.7461 29.0295 71.7349 29.0947 71.7259 29.1621C71.6989 29.3508 71.6922 29.5283 71.7056 29.6946C71.7191 29.8564 71.7753 29.989 71.8742 30.0923C71.973 30.1912 72.1281 30.2406 72.3393 30.2406Z" fill="#1B1B1B"/>
<path d="M66.9776 30.7192C66.9327 30.7192 66.8967 30.7057 66.8698 30.6788C66.8473 30.6473 66.8406 30.6091 66.8496 30.5642L67.5304 27.3691C67.5394 27.3241 67.5618 27.2882 67.5978 27.2612C67.6337 27.2297 67.6742 27.214 67.7191 27.214H68.0359C68.0809 27.214 68.1146 27.2297 68.137 27.2612C68.1595 27.2882 68.1662 27.3241 68.1573 27.3691L68.0898 27.6656C68.2292 27.5129 68.3977 27.3893 68.5954 27.2949C68.7931 27.196 69.0178 27.1466 69.2695 27.1466C69.593 27.1466 69.8469 27.2118 70.0312 27.3421C70.2154 27.4679 70.3345 27.6454 70.3884 27.8746C70.4424 28.0993 70.4356 28.3622 70.3682 28.6633L69.9638 30.5642C69.9548 30.6091 69.9323 30.6473 69.8964 30.6788C69.8649 30.7057 69.8267 30.7192 69.7818 30.7192H69.4447C69.3998 30.7192 69.3639 30.7057 69.3369 30.6788C69.3144 30.6473 69.3077 30.6091 69.3167 30.5642L69.7144 28.697C69.7863 28.3644 69.7818 28.115 69.7009 27.9488C69.6245 27.778 69.4268 27.6926 69.1077 27.6926C68.7976 27.6926 68.5325 27.7825 68.3123 27.9622C68.0966 28.1375 67.955 28.3824 67.8876 28.697L67.4967 30.5642C67.4877 30.6091 67.4652 30.6473 67.4293 30.6788C67.3978 30.7057 67.3596 30.7192 67.3147 30.7192H66.9776Z" fill="#1B1B1B"/>
<path d="M64.4145 30.7866C64.0865 30.7866 63.8169 30.7214 63.6056 30.5911C63.3944 30.4608 63.2461 30.281 63.1608 30.0519C63.0799 29.8182 63.0641 29.553 63.1136 29.2565C63.1226 29.1801 63.1405 29.0834 63.1675 28.9666C63.1945 28.8453 63.2192 28.7487 63.2416 28.6768C63.3135 28.3757 63.4304 28.1105 63.5922 27.8813C63.7539 27.6522 63.9607 27.4724 64.2123 27.3421C64.464 27.2118 64.7583 27.1466 65.0953 27.1466C65.4279 27.1466 65.6998 27.2118 65.911 27.3421C66.1222 27.4724 66.2705 27.6522 66.3559 27.8813C66.4412 28.1105 66.457 28.3757 66.4031 28.6768C66.3896 28.7487 66.3693 28.8453 66.3424 28.9666C66.3199 29.0834 66.2997 29.1801 66.2817 29.2565C66.2053 29.553 66.0862 29.8182 65.9245 30.0519C65.7672 30.281 65.5627 30.4608 65.311 30.5911C65.0594 30.7214 64.7606 30.7866 64.4145 30.7866ZM64.4415 30.2676C64.7246 30.2676 64.974 30.1799 65.1897 30.0047C65.4054 29.8249 65.556 29.5643 65.6413 29.2228C65.6593 29.1553 65.6795 29.07 65.702 28.9666C65.7245 28.8632 65.7425 28.7779 65.7559 28.7105C65.8144 28.3689 65.7851 28.1105 65.6683 27.9353C65.5515 27.7555 65.3515 27.6656 65.0684 27.6656C64.7898 27.6656 64.5426 27.7555 64.3269 27.9353C64.1112 28.1105 63.9607 28.3689 63.8753 28.7105C63.8573 28.7779 63.8371 28.8632 63.8146 28.9666C63.7921 29.07 63.7764 29.1553 63.7674 29.2228C63.7045 29.5643 63.7292 29.8249 63.8416 30.0047C63.9584 30.1799 64.1584 30.2676 64.4415 30.2676Z" fill="#1B1B1B"/>
<path d="M61.481 30.7192C61.4361 30.7192 61.4002 30.7057 61.3732 30.6788C61.3507 30.6473 61.344 30.6091 61.353 30.5642L62.0338 27.3691C62.0428 27.3241 62.0652 27.2882 62.1012 27.2612C62.1371 27.2298 62.1776 27.214 62.2225 27.214H62.5461C62.591 27.214 62.6225 27.2298 62.6405 27.2612C62.6629 27.2882 62.6697 27.3241 62.6607 27.3691L61.9866 30.5642C61.9776 30.6091 61.9551 30.6473 61.9192 30.6788C61.8877 30.7057 61.8495 30.7192 61.8046 30.7192H61.481ZM62.3102 26.5602C62.2652 26.5602 62.2315 26.5467 62.209 26.5197C62.1866 26.4883 62.1776 26.4501 62.1821 26.4051L62.2697 26.0411C62.2787 25.9962 62.2989 25.9603 62.3304 25.9333C62.3663 25.9018 62.4068 25.8861 62.4517 25.8861H62.8696C62.9191 25.8861 62.955 25.9018 62.9775 25.9333C63.0045 25.9603 63.0134 25.9962 63.0045 26.0411L62.9236 26.4051C62.9146 26.4501 62.8921 26.4883 62.8562 26.5197C62.8202 26.5467 62.7798 26.5602 62.7348 26.5602H62.3102Z" fill="#1B1B1B"/>
<path d="M59.177 30.7866C58.9253 30.7866 58.7164 30.7551 58.5501 30.6922C58.3838 30.6293 58.2535 30.5529 58.1591 30.463C58.0648 30.3732 57.9996 30.2833 57.9636 30.1934C57.9322 30.1035 57.9187 30.0316 57.9232 29.9777C57.9322 29.9283 57.9547 29.8901 57.9906 29.8631C58.0311 29.8362 58.0693 29.8227 58.1052 29.8227H58.4085C58.431 29.8227 58.4512 29.8272 58.4692 29.8362C58.4872 29.8407 58.5029 29.8586 58.5164 29.8901C58.5613 29.953 58.613 30.0159 58.6714 30.0788C58.7298 30.1417 58.8062 30.1934 58.9006 30.2339C58.9995 30.2743 59.1298 30.2945 59.2916 30.2945C59.5163 30.2945 59.7117 30.2518 59.878 30.1665C60.0488 30.0766 60.1521 29.9463 60.1881 29.7755C60.2106 29.6631 60.1971 29.5733 60.1476 29.5059C60.0982 29.4385 60.0038 29.3778 59.8645 29.3239C59.7252 29.2699 59.5252 29.2138 59.2646 29.1553C59.0085 29.0924 58.8107 29.016 58.6714 28.9262C58.5366 28.8318 58.449 28.7217 58.4085 28.5959C58.3726 28.4655 58.3703 28.3195 58.4018 28.1577C58.4422 27.9914 58.5254 27.8319 58.6512 27.6791C58.7815 27.5218 58.9523 27.3938 59.1635 27.2949C59.3792 27.196 59.6309 27.1466 59.9185 27.1466C60.1521 27.1466 60.3454 27.1758 60.4982 27.2342C60.6554 27.2927 60.779 27.3668 60.8689 27.4567C60.9588 27.5421 61.0194 27.6274 61.0509 27.7128C61.0869 27.7982 61.1003 27.8701 61.0914 27.9285C61.0869 27.9735 61.0644 28.0117 61.0239 28.0431C60.988 28.0701 60.9498 28.0836 60.9093 28.0836H60.633C60.6015 28.0836 60.5746 28.0768 60.5521 28.0633C60.5341 28.0499 60.5206 28.0341 60.5116 28.0162C60.4757 27.9577 60.433 27.8993 60.3836 27.8409C60.3386 27.7825 60.2712 27.7353 60.1814 27.6993C60.096 27.6589 59.9746 27.6387 59.8174 27.6387C59.5927 27.6387 59.4129 27.6859 59.2781 27.7802C59.1478 27.8746 59.0669 27.9937 59.0354 28.1375C59.0175 28.2229 59.0242 28.2993 59.0557 28.3667C59.0916 28.4341 59.1725 28.4948 59.2983 28.5487C59.4286 28.6026 59.6241 28.661 59.8848 28.7239C60.1679 28.7824 60.3836 28.861 60.5319 28.9599C60.6847 29.0587 60.7835 29.1733 60.8285 29.3036C60.8734 29.434 60.8779 29.5845 60.8419 29.7553C60.806 29.944 60.7139 30.117 60.5656 30.2743C60.4218 30.4316 60.233 30.5574 59.9993 30.6518C59.7657 30.7417 59.4915 30.7866 59.177 30.7866Z" fill="#1B1B1B"/>
<path d="M56.4059 30.7192C56.3609 30.7192 56.325 30.7057 56.298 30.6788C56.2755 30.6473 56.2688 30.6091 56.2778 30.5642L56.9586 27.3691C56.9676 27.3241 56.99 27.2882 57.026 27.2612C57.0619 27.2298 57.1024 27.214 57.1473 27.214H57.4709C57.5158 27.214 57.5473 27.2298 57.5653 27.2612C57.5877 27.2882 57.5945 27.3241 57.5855 27.3691L56.9114 30.5642C56.9024 30.6091 56.88 30.6473 56.844 30.6788C56.8125 30.7057 56.7743 30.7192 56.7294 30.7192H56.4059ZM57.235 26.5602C57.19 26.5602 57.1563 26.5467 57.1338 26.5197C57.1114 26.4883 57.1024 26.4501 57.1069 26.4051L57.1945 26.0411C57.2035 25.9962 57.2237 25.9603 57.2552 25.9333C57.2911 25.9018 57.3316 25.8861 57.3765 25.8861H57.7944C57.8439 25.8861 57.8798 25.9018 57.9023 25.9333C57.9293 25.9603 57.9382 25.9962 57.9293 26.0411L57.8484 26.4051C57.8394 26.4501 57.8169 26.4883 57.781 26.5197C57.745 26.5467 57.7046 26.5602 57.6596 26.5602H57.235Z" fill="#1B1B1B"/>
<path d="M53.31 30.7194C53.2426 30.7194 53.191 30.7036 53.155 30.6722C53.1235 30.6407 53.1056 30.598 53.1011 30.5441L52.5146 26.1694C52.5101 26.1154 52.5214 26.075 52.5483 26.048C52.5753 26.0166 52.6113 26.0009 52.6562 26.0009H53C53.0539 26.0009 53.0921 26.0143 53.1146 26.0413C53.137 26.0638 53.1505 26.0907 53.155 26.1222L53.6606 29.9442L55.7974 26.1222C55.8064 26.0952 55.8243 26.0683 55.8513 26.0413C55.8783 26.0143 55.9187 26.0009 55.9726 26.0009H56.3838C56.4377 26.0009 56.4714 26.0233 56.4849 26.0683C56.5029 26.1132 56.4984 26.1604 56.4714 26.2098L54.0448 30.5441C54.0178 30.598 53.9819 30.6407 53.9369 30.6722C53.892 30.7036 53.8358 30.7194 53.7684 30.7194H53.31Z" fill="#1B1B1B"/>
<path d="M48.4416 30.7192C48.3967 30.7192 48.3607 30.7057 48.3338 30.6788C48.3113 30.6473 48.3046 30.6091 48.3136 30.5642L48.9135 27.7533H48.3405C48.2956 27.7533 48.2619 27.7398 48.2394 27.7129C48.2169 27.6814 48.2102 27.6432 48.2192 27.5983L48.2664 27.3691C48.2754 27.3241 48.2978 27.2882 48.3338 27.2612C48.3697 27.2298 48.4102 27.214 48.4551 27.214H49.0281L49.1022 26.877C49.1517 26.6478 49.2325 26.4478 49.3449 26.2771C49.4617 26.1018 49.61 25.967 49.7898 25.8726C49.974 25.7783 50.192 25.7311 50.4436 25.7311H50.902C50.9469 25.7311 50.9806 25.7468 51.0031 25.7783C51.0256 25.8052 51.0323 25.8412 51.0233 25.8861L50.9761 26.1153C50.9672 26.1602 50.9447 26.1984 50.9087 26.2299C50.8728 26.2569 50.8323 26.2703 50.7874 26.2703H50.4369C50.2257 26.2703 50.0617 26.3265 49.9448 26.4389C49.8325 26.5467 49.7561 26.704 49.7156 26.9107L49.6482 27.214H50.5178C50.5627 27.214 50.5964 27.2298 50.6189 27.2612C50.6414 27.2882 50.6481 27.3241 50.6391 27.3691L50.5919 27.5983C50.5829 27.6432 50.5605 27.6814 50.5245 27.7129C50.4931 27.7398 50.4526 27.7533 50.4032 27.7533H49.5404L48.9404 30.5642C48.9315 30.6091 48.909 30.6473 48.873 30.6788C48.8416 30.7057 48.8034 30.7192 48.7584 30.7192H48.4416Z" fill="#1B1B1B"/>
<path d="M45.7065 30.7866C45.4009 30.7866 45.147 30.7214 44.9448 30.5911C44.747 30.4608 44.61 30.2766 44.5336 30.0384C44.4572 29.7957 44.4415 29.5126 44.4864 29.189C44.4954 29.1306 44.5089 29.0565 44.5268 28.9666C44.5493 28.8722 44.5695 28.7958 44.5875 28.7374C44.6774 28.4184 44.8099 28.1397 44.9852 27.9016C45.165 27.6589 45.3829 27.4724 45.6391 27.3421C45.8952 27.2118 46.1761 27.1466 46.4816 27.1466C46.8232 27.1466 47.0928 27.2185 47.2905 27.3623C47.4883 27.5061 47.6208 27.7106 47.6882 27.9757C47.7556 28.2409 47.7534 28.5509 47.6815 28.9059L47.6545 29.0205C47.6455 29.07 47.6208 29.1082 47.5804 29.1351C47.5444 29.1621 47.504 29.1756 47.4591 29.1756H45.1335C45.1335 29.1801 45.1313 29.189 45.1268 29.2025C45.1268 29.216 45.1245 29.2272 45.12 29.2362C45.0931 29.4205 45.0976 29.5935 45.1335 29.7553C45.1695 29.9126 45.2436 30.0406 45.3559 30.1395C45.4728 30.2384 45.6256 30.2878 45.8143 30.2878C45.9761 30.2878 46.1154 30.2631 46.2322 30.2136C46.3536 30.1642 46.4524 30.1103 46.5288 30.0519C46.6052 29.989 46.6592 29.9418 46.6906 29.9103C46.7445 29.8519 46.7827 29.8182 46.8052 29.8092C46.8322 29.7957 46.8726 29.789 46.9265 29.789H47.2501C47.2905 29.789 47.322 29.8025 47.3445 29.8294C47.3669 29.8519 47.3737 29.8856 47.3647 29.9305C47.3467 29.9979 47.2928 30.0811 47.2029 30.1799C47.1175 30.2743 47.0007 30.3687 46.8524 30.463C46.7086 30.5574 46.5401 30.6361 46.3468 30.699C46.1536 30.7574 45.9401 30.7866 45.7065 30.7866ZM45.2346 28.7105H47.0748L47.0816 28.6902C47.1355 28.488 47.14 28.3083 47.0951 28.151C47.0546 27.9937 46.9737 27.8701 46.8524 27.7802C46.7311 27.6859 46.5738 27.6387 46.3805 27.6387C46.1873 27.6387 46.0143 27.6859 45.8615 27.7802C45.7087 27.8701 45.5784 27.9937 45.4705 28.151C45.3672 28.3083 45.2908 28.488 45.2414 28.6902L45.2346 28.7105Z" fill="#1B1B1B"/>
<path d="M42.753 30.7192C42.7081 30.7192 42.6721 30.7057 42.6452 30.6788C42.6227 30.6473 42.616 30.6091 42.6249 30.5642L43.3058 27.3691C43.3147 27.3241 43.3372 27.2882 43.3732 27.2612C43.4091 27.2298 43.4496 27.214 43.4945 27.214H43.8181C43.863 27.214 43.8944 27.2298 43.9124 27.2612C43.9349 27.2882 43.9416 27.3241 43.9326 27.3691L43.2586 30.5642C43.2496 30.6091 43.2271 30.6473 43.1912 30.6788C43.1597 30.7057 43.1215 30.7192 43.0766 30.7192H42.753ZM43.5821 26.5602C43.5372 26.5602 43.5035 26.5467 43.481 26.5197C43.4586 26.4883 43.4496 26.4501 43.4541 26.4051L43.5417 26.0411C43.5507 25.9962 43.5709 25.9603 43.6024 25.9333C43.6383 25.9018 43.6787 25.8861 43.7237 25.8861H44.1416C44.191 25.8861 44.227 25.9018 44.2495 25.9333C44.2764 25.9603 44.2854 25.9962 44.2764 26.0411L44.1955 26.4051C44.1865 26.4501 44.1641 26.4883 44.1281 26.5197C44.0922 26.5467 44.0517 26.5602 44.0068 26.5602H43.5821Z" fill="#1B1B1B"/>
<path d="M38.6456 30.7192C38.6007 30.7192 38.5647 30.7057 38.5377 30.6787C38.5153 30.6472 38.5085 30.6091 38.5175 30.5641L39.4747 26.0883C39.4837 26.0433 39.5039 26.0074 39.5354 25.9804C39.5713 25.949 39.6118 25.9332 39.6567 25.9332H40.0005C40.0454 25.9332 40.0791 25.949 40.1016 25.9804C40.1241 26.0074 40.1308 26.0433 40.1218 26.0883L39.7848 27.6589C39.9241 27.5061 40.0836 27.3825 40.2634 27.2881C40.4476 27.1937 40.6723 27.1466 40.9374 27.1466C41.243 27.1466 41.4879 27.2117 41.6722 27.342C41.8609 27.4679 41.989 27.6454 42.0564 27.8746C42.1238 28.0993 42.1238 28.3621 42.0564 28.6632L41.652 30.5641C41.643 30.6091 41.6205 30.6472 41.5846 30.6787C41.5531 30.7057 41.5149 30.7192 41.47 30.7192H41.1262C41.0812 30.7192 41.0453 30.7057 41.0183 30.6787C40.9959 30.6472 40.9891 30.6091 40.9981 30.5641L41.3958 28.6969C41.4632 28.3824 41.4497 28.1374 41.3554 27.9622C41.261 27.7824 41.0655 27.6926 40.7689 27.6926C40.5847 27.6926 40.4094 27.733 40.2432 27.8139C40.0769 27.8903 39.9331 28.0049 39.8117 28.1577C39.6949 28.306 39.6118 28.4857 39.5623 28.6969L39.1714 30.5641C39.1624 30.6091 39.1399 30.6472 39.104 30.6787C39.0725 30.7057 39.0343 30.7192 38.9894 30.7192H38.6456Z" fill="#1B1B1B"/>
<path d="M35.8411 30.7866C35.5356 30.7866 35.2727 30.7439 35.0525 30.6585C34.8368 30.5731 34.6638 30.4495 34.5334 30.2877C34.4076 30.1215 34.3222 29.9282 34.2773 29.708C34.2369 29.4833 34.2413 29.2339 34.2908 28.9598C34.3222 28.7756 34.3604 28.5778 34.4054 28.3666C34.4548 28.1554 34.502 27.9532 34.5469 27.76C34.6368 27.396 34.7739 27.0769 34.9581 26.8028C35.1424 26.5287 35.3828 26.3152 35.6794 26.1624C35.976 26.0096 36.331 25.9332 36.7444 25.9332C37.0545 25.9332 37.3196 25.9737 37.5398 26.0546C37.7645 26.1354 37.9443 26.2478 38.0791 26.3916C38.2139 26.5354 38.306 26.6972 38.3554 26.8769C38.4049 27.0567 38.4116 27.2432 38.3757 27.4364C38.3712 27.4769 38.3577 27.5106 38.3352 27.5375C38.3128 27.5645 38.2813 27.578 38.2408 27.578H37.8566C37.8117 27.578 37.7735 27.5667 37.742 27.5443C37.7151 27.5218 37.7016 27.4813 37.7016 27.4229C37.7286 27.0859 37.6499 26.85 37.4657 26.7152C37.2814 26.5758 37.032 26.5062 36.7174 26.5062C36.3579 26.5062 36.0434 26.6095 35.7737 26.8163C35.5086 27.0185 35.3199 27.3443 35.2075 27.7937C35.1132 28.1622 35.0323 28.5396 34.9649 28.9261C34.8885 29.3755 34.9289 29.7035 35.0862 29.9103C35.248 30.1125 35.5086 30.2136 35.8681 30.2136C36.1827 30.2136 36.4613 30.1484 36.704 30.0181C36.9466 29.8878 37.1444 29.6474 37.2971 29.2969C37.3241 29.2384 37.3511 29.198 37.378 29.1755C37.4095 29.1531 37.4454 29.1418 37.4859 29.1418H37.8701C37.9106 29.1418 37.942 29.1553 37.9645 29.1823C37.9869 29.2092 37.9914 29.2429 37.978 29.2834C37.9285 29.4676 37.8499 29.6496 37.742 29.8294C37.6342 30.0091 37.4949 30.1709 37.3241 30.3147C37.1533 30.4585 36.9466 30.5731 36.704 30.6585C36.4613 30.7439 36.1737 30.7866 35.8411 30.7866Z" fill="#1B1B1B"/>
<path d="M29.1525 30.7866C28.8424 30.7866 28.5818 30.7304 28.3706 30.618C28.1638 30.5057 28.0155 30.3507 27.9257 30.1529C27.8403 29.9507 27.8246 29.7193 27.8785 29.4586C27.9234 29.2519 28.0043 29.0722 28.1211 28.9194C28.2425 28.7621 28.3885 28.6228 28.5593 28.5014C28.7301 28.3801 28.9121 28.27 29.1053 28.1712C28.939 27.9465 28.8289 27.7487 28.775 27.578C28.7256 27.4072 28.7211 27.2297 28.7615 27.0454C28.8065 26.8432 28.8963 26.659 29.0311 26.4927C29.1705 26.3264 29.3457 26.1916 29.5569 26.0883C29.7681 25.9849 30.0018 25.9332 30.258 25.9332C30.5051 25.9332 30.7096 25.9827 30.8714 26.0815C31.0376 26.1804 31.1545 26.313 31.2219 26.4792C31.2938 26.6455 31.3073 26.832 31.2623 27.0387C31.2219 27.2364 31.1387 27.4094 31.0129 27.5577C30.8871 27.706 30.7321 27.8386 30.5478 27.9554C30.3681 28.0723 30.1771 28.1824 29.9748 28.2857L30.8781 29.4114C30.977 29.2856 31.0758 29.1396 31.1747 28.9733C31.2781 28.807 31.3724 28.6115 31.4578 28.3869C31.4893 28.297 31.5477 28.252 31.6331 28.252H31.9297C31.9701 28.252 31.9993 28.2655 32.0173 28.2925C32.0398 28.3194 32.0465 28.3532 32.0375 28.3936C32.015 28.4925 31.9791 28.5981 31.9297 28.7104C31.8802 28.8228 31.8196 28.9418 31.7477 29.0677C31.6758 29.1935 31.5926 29.3193 31.4983 29.4452C31.4084 29.5665 31.3073 29.6878 31.1949 29.8092L31.7409 30.49C31.7724 30.5214 31.7836 30.5551 31.7746 30.5911C31.7701 30.6315 31.7522 30.663 31.7207 30.6854C31.6937 30.7079 31.6578 30.7192 31.6128 30.7192H31.2354C31.1904 30.7192 31.1545 30.7124 31.1275 30.6989C31.1006 30.6854 31.0803 30.6697 31.0668 30.6517L30.7163 30.2136C30.5096 30.3844 30.2737 30.5237 30.0086 30.6315C29.7479 30.7349 29.4626 30.7866 29.1525 30.7866ZM29.2671 30.2473C29.4468 30.2473 29.6333 30.2113 29.8266 30.1394C30.0243 30.0631 30.2153 29.9507 30.3995 29.8024L29.4019 28.5689C29.1862 28.6767 28.9929 28.8003 28.8222 28.9396C28.6514 29.0744 28.5436 29.2429 28.4986 29.4452C28.4627 29.6159 28.4762 29.762 28.5391 29.8833C28.602 30.0001 28.6986 30.09 28.8289 30.1529C28.9592 30.2158 29.1053 30.2473 29.2671 30.2473ZM29.685 27.8948C29.8468 27.8139 29.9973 27.733 30.1366 27.6521C30.2759 27.5712 30.3928 27.4813 30.4871 27.3825C30.586 27.2836 30.6489 27.1713 30.6759 27.0454C30.7118 26.8657 30.6781 26.7219 30.5748 26.614C30.4714 26.5062 30.3276 26.4523 30.1434 26.4523C29.9726 26.4523 29.8086 26.5062 29.6513 26.614C29.4985 26.7174 29.4019 26.8634 29.3614 27.0522C29.339 27.169 29.348 27.2881 29.3884 27.4094C29.4333 27.5308 29.5322 27.6926 29.685 27.8948Z" fill="#1B1B1B"/>
<path d="M23.6891 30.7192C23.6441 30.7192 23.6082 30.7057 23.5812 30.6787C23.5587 30.6473 23.552 30.6091 23.561 30.5641L24.2418 27.3758C24.2508 27.3308 24.2733 27.2926 24.3092 27.2612C24.3452 27.2297 24.3856 27.214 24.4305 27.214H24.7406C24.7855 27.214 24.8193 27.2297 24.8417 27.2612C24.8687 27.2926 24.8777 27.3308 24.8687 27.3758L24.8013 27.6724C24.9046 27.5196 25.0417 27.405 25.2125 27.3286C25.3877 27.2522 25.5899 27.214 25.8191 27.214H26.109C26.1539 27.214 26.1854 27.2297 26.2033 27.2612C26.2258 27.2881 26.2326 27.3241 26.2236 27.369L26.1696 27.6454C26.1607 27.6903 26.1382 27.7263 26.1022 27.7532C26.0708 27.7802 26.0303 27.7937 25.9809 27.7937H25.5832C25.3405 27.7937 25.1338 27.8656 24.9631 28.0094C24.7923 28.1487 24.6799 28.3397 24.626 28.5824L24.2081 30.5641C24.1991 30.6091 24.1766 30.6473 24.1407 30.6787C24.1047 30.7057 24.0643 30.7192 24.0194 30.7192H23.6891Z" fill="#1B1B1B"/>
<path d="M21.245 30.7866C20.9395 30.7866 20.6856 30.7214 20.4833 30.5911C20.2856 30.4608 20.1485 30.2766 20.0722 30.0384C19.9958 29.7957 19.98 29.5126 20.025 29.189C20.034 29.1306 20.0474 29.0565 20.0654 28.9666C20.0879 28.8722 20.1081 28.7958 20.1261 28.7374C20.216 28.4184 20.3485 28.1397 20.5238 27.9016C20.7035 27.6589 20.9215 27.4724 21.1776 27.3421C21.4338 27.2118 21.7146 27.1466 22.0202 27.1466C22.3618 27.1466 22.6314 27.2185 22.8291 27.3623C23.0268 27.5061 23.1594 27.7106 23.2268 27.9757C23.2942 28.2409 23.292 28.5509 23.2201 28.9059L23.1931 29.0205C23.1841 29.07 23.1594 29.1082 23.119 29.1351C23.083 29.1621 23.0426 29.1756 22.9976 29.1756H20.6721C20.6721 29.1801 20.6698 29.189 20.6653 29.2025C20.6653 29.216 20.6631 29.2272 20.6586 29.2362C20.6316 29.4205 20.6361 29.5935 20.6721 29.7553C20.708 29.9126 20.7822 30.0406 20.8945 30.1395C21.0114 30.2384 21.1641 30.2878 21.3529 30.2878C21.5147 30.2878 21.654 30.2631 21.7708 30.2136C21.8921 30.1642 21.991 30.1103 22.0674 30.0519C22.1438 29.989 22.1977 29.9418 22.2292 29.9103C22.2831 29.8519 22.3213 29.8182 22.3438 29.8092C22.3707 29.7957 22.4112 29.789 22.4651 29.789H22.7887C22.8291 29.789 22.8606 29.8025 22.883 29.8294C22.9055 29.8519 22.9122 29.8856 22.9033 29.9305C22.8853 29.9979 22.8314 30.0811 22.7415 30.1799C22.6561 30.2743 22.5393 30.3687 22.391 30.463C22.2472 30.5574 22.0786 30.6361 21.8854 30.699C21.6922 30.7574 21.4787 30.7866 21.245 30.7866ZM20.7732 28.7105H22.6134L22.6201 28.6902C22.6741 28.488 22.6786 28.3083 22.6336 28.151C22.5932 27.9937 22.5123 27.8701 22.391 27.7802C22.2696 27.6859 22.1123 27.6387 21.9191 27.6387C21.7259 27.6387 21.5529 27.6859 21.4001 27.7802C21.2473 27.8701 21.117 27.9937 21.0091 28.151C20.9058 28.3083 20.8294 28.488 20.7799 28.6902L20.7732 28.7105Z" fill="#1B1B1B"/>
<path d="M17.0878 30.7866C16.8406 30.7866 16.6339 30.7439 16.4677 30.6585C16.3014 30.5686 16.1733 30.4495 16.0834 30.3012C15.9936 30.1484 15.9374 29.9754 15.9149 29.7822C15.8925 29.589 15.8969 29.3845 15.9284 29.1688C15.9419 29.0969 15.9554 29.0295 15.9688 28.9666C15.9823 28.9036 15.9981 28.8362 16.016 28.7643C16.07 28.5531 16.1441 28.3532 16.2385 28.1644C16.3328 27.9712 16.4497 27.7982 16.589 27.6454C16.7283 27.4881 16.8946 27.3668 17.0878 27.2814C17.2855 27.1915 17.5125 27.1466 17.7686 27.1466C18.0472 27.1466 18.2652 27.1937 18.4225 27.2881C18.5843 27.3825 18.7033 27.4993 18.7797 27.6386L19.1168 26.0883C19.1258 26.0433 19.146 26.0074 19.1774 25.9804C19.2134 25.949 19.2538 25.9332 19.2988 25.9332H19.6223C19.6718 25.9332 19.7077 25.949 19.7302 25.9804C19.7526 26.0074 19.7594 26.0433 19.7504 26.0883L18.7932 30.5641C18.7842 30.6091 18.764 30.6472 18.7325 30.6787C18.7011 30.7057 18.6606 30.7192 18.6112 30.7192H18.3079C18.2629 30.7192 18.227 30.7057 18.2 30.6787C18.1776 30.6472 18.1708 30.6091 18.1798 30.5641L18.2405 30.281C18.1012 30.4248 17.9439 30.5461 17.7686 30.645C17.5979 30.7394 17.3709 30.7866 17.0878 30.7866ZM17.2226 30.2406C17.4473 30.2406 17.645 30.1889 17.8158 30.0855C17.9866 29.9822 18.1236 29.8518 18.227 29.6946C18.3348 29.5328 18.409 29.3688 18.4494 29.2025C18.4719 29.1306 18.4921 29.0452 18.5101 28.9463C18.5326 28.843 18.5505 28.7553 18.564 28.6834C18.5955 28.5262 18.5932 28.3711 18.5573 28.2183C18.5258 28.0655 18.4517 27.9397 18.3348 27.8409C18.2225 27.742 18.0562 27.6926 17.836 27.6926C17.6248 27.6926 17.4406 27.7442 17.2833 27.8476C17.1305 27.9465 17.0024 28.079 16.8991 28.2453C16.8002 28.4071 16.7216 28.5823 16.6631 28.7711C16.6452 28.8385 16.6294 28.9036 16.616 28.9666C16.6025 29.0295 16.5912 29.0946 16.5823 29.162C16.5553 29.3508 16.5508 29.5283 16.5688 29.6946C16.5912 29.8563 16.6519 29.9889 16.7508 30.0923C16.8541 30.1911 17.0114 30.2406 17.2226 30.2406Z" fill="#1B1B1B"/>
<path d="M11.8404 30.7192C11.7955 30.7192 11.7595 30.7057 11.7326 30.6788C11.7101 30.6473 11.7034 30.6091 11.7123 30.5642L12.3932 27.3691C12.4021 27.3241 12.4246 27.2882 12.4606 27.2612C12.4965 27.2297 12.537 27.214 12.5819 27.214H12.8987C12.9437 27.214 12.9774 27.2297 12.9998 27.2612C13.0223 27.2882 13.029 27.3241 13.02 27.3691L12.9526 27.6656C13.092 27.5129 13.2605 27.3893 13.4582 27.2949C13.6559 27.196 13.8806 27.1466 14.1323 27.1466C14.4558 27.1466 14.7097 27.2118 14.894 27.3421C15.0782 27.4679 15.1973 27.6454 15.2512 27.8746C15.3052 28.0993 15.2984 28.3622 15.231 28.6633L14.8266 30.5642C14.8176 30.6091 14.7951 30.6473 14.7592 30.6788C14.7277 30.7057 14.6895 30.7192 14.6446 30.7192H14.3075C14.2626 30.7192 14.2266 30.7057 14.1997 30.6788C14.1772 30.6473 14.1705 30.6091 14.1795 30.5642L14.5772 28.697C14.6491 28.3644 14.6446 28.115 14.5637 27.9488C14.4873 27.778 14.2896 27.6926 13.9705 27.6926C13.6604 27.6926 13.3953 27.7825 13.1751 27.9622C12.9594 28.1375 12.8178 28.3824 12.7504 28.697L12.3595 30.5642C12.3505 30.6091 12.328 30.6473 12.2921 30.6788C12.2606 30.7057 12.2224 30.7192 12.1775 30.7192H11.8404Z" fill="#1B1B1B"/>
<path d="M8.99249 30.7866C8.67343 30.7866 8.42178 30.7237 8.23753 30.5978C8.05778 30.4675 7.94094 30.2878 7.88701 30.0586C7.83758 29.8294 7.84207 29.5665 7.90049 29.2699L8.30494 27.369C8.31392 27.3241 8.33639 27.2881 8.37234 27.2612C8.40829 27.2297 8.44874 27.214 8.49368 27.214H8.83071C8.87565 27.214 8.90711 27.2297 8.92508 27.2612C8.94755 27.2881 8.95429 27.3241 8.94531 27.369L8.55434 29.2362C8.50491 29.4564 8.48694 29.6429 8.50042 29.7957C8.51839 29.944 8.57681 30.0563 8.67568 30.1327C8.77904 30.2046 8.93857 30.2406 9.15427 30.2406C9.44637 30.2406 9.70252 30.153 9.92271 29.9777C10.1429 29.7979 10.2867 29.5508 10.3541 29.2362L10.7518 27.369C10.7608 27.3241 10.7833 27.2881 10.8192 27.2612C10.8552 27.2297 10.8956 27.214 10.9406 27.214H11.2709C11.3158 27.214 11.3495 27.2297 11.372 27.2612C11.3944 27.2881 11.4012 27.3241 11.3922 27.369L10.7114 30.5641C10.7024 30.6091 10.6799 30.6473 10.644 30.6787C10.6125 30.7057 10.5743 30.7192 10.5294 30.7192H10.2193C10.1744 30.7192 10.1384 30.7057 10.1115 30.6787C10.089 30.6473 10.0822 30.6091 10.0912 30.5641L10.1519 30.2675C10.053 30.3709 9.95192 30.463 9.84856 30.5439C9.74521 30.6203 9.62612 30.6787 9.49131 30.7192C9.36098 30.7641 9.19471 30.7866 8.99249 30.7866Z" fill="#1B1B1B"/>
<path d="M5.22215 30.7866C4.8941 30.7866 4.62447 30.7214 4.41326 30.5911C4.20206 30.4608 4.05376 30.281 3.96838 30.0519C3.88749 29.8182 3.87176 29.553 3.92119 29.2565C3.93018 29.1801 3.94815 29.0834 3.97512 28.9666C4.00208 28.8453 4.0268 28.7487 4.04927 28.6768C4.12117 28.3757 4.23801 28.1105 4.39978 27.8813C4.56156 27.6522 4.76828 27.4724 5.01993 27.3421C5.27158 27.2118 5.56593 27.1466 5.90297 27.1466C6.23551 27.1466 6.50739 27.2118 6.71859 27.3421C6.9298 27.4724 7.0781 27.6522 7.16348 27.8813C7.24887 28.1105 7.26459 28.3757 7.21067 28.6768C7.19719 28.7487 7.17696 28.8453 7.15 28.9666C7.12753 29.0834 7.10731 29.1801 7.08933 29.2565C7.01294 29.553 6.89385 29.8182 6.73208 30.0519C6.57479 30.281 6.37032 30.4608 6.11867 30.5911C5.86702 30.7214 5.56818 30.7866 5.22215 30.7866ZM5.24912 30.2676C5.53223 30.2676 5.78163 30.1799 5.99734 30.0047C6.21304 29.8249 6.36358 29.5643 6.44897 29.2228C6.46694 29.1553 6.48716 29.07 6.50963 28.9666C6.5321 28.8632 6.55008 28.7779 6.56356 28.7105C6.62198 28.3689 6.59277 28.1105 6.47593 27.9353C6.35909 27.7555 6.15911 27.6656 5.876 27.6656C5.59739 27.6656 5.35023 27.7555 5.13452 27.9353C4.91882 28.1105 4.76828 28.3689 4.68289 28.7105C4.66492 28.7779 4.6447 28.8632 4.62223 28.9666C4.59976 29.07 4.58403 29.1553 4.57504 29.2228C4.51213 29.5643 4.53685 29.8249 4.64919 30.0047C4.76603 30.1799 4.966 30.2676 5.24912 30.2676Z" fill="#1B1B1B"/>
<path d="M0.125185 30.7194C0.0802468 30.7194 0.0465431 30.7059 0.0240741 30.6789C0.00160495 30.6475 -0.0051358 30.6093 0.00385184 30.5643L0.940813 26.1626C0.949801 26.1132 0.970023 26.075 1.00148 26.048C1.03743 26.0166 1.07787 26.0009 1.12281 26.0009H3.87977C3.9292 26.0009 3.96291 26.0166 3.98088 26.048C4.00335 26.075 4.01009 26.1132 4.00111 26.1626L3.94718 26.4323C3.93819 26.4817 3.91572 26.5199 3.87977 26.5469C3.84832 26.5738 3.80787 26.5873 3.75844 26.5873H1.50703L1.17 28.1579H3.28659C3.33602 28.1579 3.36972 28.1736 3.3877 28.2051C3.41017 28.232 3.41691 28.2702 3.40792 28.3197L3.35399 28.5893C3.3495 28.6342 3.32928 28.6724 3.29333 28.7039C3.25738 28.7309 3.21469 28.7443 3.16525 28.7443H1.04867L0.657703 30.5643C0.648715 30.6093 0.626246 30.6475 0.590295 30.6789C0.558839 30.7059 0.518394 30.7194 0.468962 30.7194H0.125185Z" fill="#1B1B1B"/>
</svg>
